<svg xmlns="http://www.w3.org/2000/svg" xmlns:xlink="http://www.w3.org/1999/xlink" width="400" zoomAndPan="magnify" viewBox="0 0 300 262.499992" height="350" preserveAspectRatio="xMidYMid meet" version="1.0"><defs><g/><clipPath id="20e864593e"><path d="M 37.09375 77 L 153.121094 77 L 153.121094 145.417969 L 37.09375 145.417969 Z M 37.09375 77 " clip-rule="nonzero"/></clipPath><clipPath id="77cf999822"><path d="M 138 69.0625 L 141 69.0625 L 141 72 L 138 72 Z M 138 69.0625 " clip-rule="nonzero"/></clipPath><clipPath id="d51a49361a"><path d="M 147.058594 65.566406 L 296.023438 65.566406 L 296.023438 100 L 147.058594 100 Z M 147.058594 65.566406 " clip-rule="nonzero"/></clipPath></defs><path fill="#ffffff" d="M 190.347656 50.21875 C 183.257812 41.53125 173.816406 35.71875 163.511719 32.773438 C 159.976562 31.398438 156.328125 30.421875 152.578125 29.84375 C 152.558594 29.839844 152.539062 29.832031 152.519531 29.832031 C 129.132812 26.28125 104.3125 38.976562 94.589844 60.808594 C 94.527344 60.953125 94.464844 61.097656 94.40625 61.242188 C 91.265625 67.675781 89.449219 74.460938 88.957031 81.597656 C 87.289062 105.761719 102.519531 128.832031 124.273438 138.789062 C 135.980469 144.148438 149.882812 145.652344 162.253906 141.734375 C 175.046875 137.679688 185.078125 127.382812 192.558594 116.597656 C 206.8125 96.058594 206.300781 69.761719 190.347656 50.21875 Z M 109.496094 43.757812 C 124.808594 32.460938 145.34375 28.191406 163.535156 33.480469 C 169.59375 35.820312 174.996094 39.203125 179.746094 43.628906 C 196.820312 59.496094 202.488281 84.746094 191.203125 105.5625 C 180.273438 125.726562 155.464844 140.070312 132.308594 135.953125 C 117.9375 133.394531 104.433594 122.085938 97.488281 109.53125 C 90.890625 97.617188 89.039062 83.164062 92.234375 69.953125 C 92.882812 67.289062 93.746094 64.699219 94.828125 62.179688 C 97.15625 57.179688 100.164062 52.625 103.851562 48.523438 C 107.542969 44.421875 111.75 40.949219 116.476562 38.105469 C 128.1875 31.066406 141.734375 28.589844 154.453125 30.921875 C 149.34375 30.300781 144.238281 30.316406 139.132812 30.972656 C 134.027344 31.628906 129.082031 32.902344 124.296875 34.792969 C 118.875 36.96875 113.886719 39.878906 109.328125 43.523438 C 109.1875 43.625 109.359375 43.847656 109.496094 43.757812 Z M 180.453125 129.484375 C 170.148438 139.390625 157.160156 144.148438 142.867188 142.910156 C 119.617188 140.878906 99.101562 123.683594 92.070312 101.566406 C 90.792969 97.53125 90.003906 93.40625 89.707031 89.183594 C 89.410156 84.960938 89.613281 80.765625 90.316406 76.59375 C 88.195312 95.609375 96.273438 115.082031 111.910156 127.007812 C 123.042969 135.488281 135.371094 138.898438 149.25 136.476562 C 160.777344 134.46875 171.628906 128.878906 180.191406 120.929688 C 197.84375 104.5625 203.277344 79.34375 191.707031 57.855469 C 189.230469 53.234375 186.15625 49.054688 182.480469 45.316406 C 178.808594 41.578125 174.683594 38.425781 170.109375 35.867188 C 172.375 36.859375 174.558594 38.003906 176.660156 39.304688 C 195.625 51.050781 206.34375 75.5625 200.726562 97.367188 C 197.542969 109.746094 189.558594 120.726562 180.453125 129.484375 Z M 180.453125 129.484375 " fill-opacity="1" fill-rule="nonzero"/><g clip-path="url(#20e864593e)"><path fill="#ffffff" d="M 152.707031 85.359375 C 152.324219 85.3125 151.914062 85.308594 151.53125 85.382812 C 149.203125 85.816406 146.867188 86.246094 144.550781 86.746094 C 143.339844 87.007812 142.144531 87.355469 140.980469 87.769531 C 139.171875 88.410156 137.402344 89.148438 135.609375 89.832031 C 135.425781 89.90625 135.226562 90.121094 134.957031 89.792969 C 135.375 88.328125 135.953125 86.875 136.53125 85.417969 C 137.132812 83.902344 137.890625 82.445312 138.515625 80.933594 C 138.882812 80.042969 139.101562 79.09375 138.648438 78.144531 C 138.574219 77.996094 138.457031 77.878906 138.355469 77.734375 C 137.859375 77.648438 137.371094 77.5625 136.855469 77.46875 C 136.582031 77.839844 136.320312 78.160156 136.097656 78.5 C 133.847656 79.363281 131.617188 80.246094 129.308594 80.921875 C 126 81.894531 122.738281 83.019531 119.414062 83.945312 C 114.207031 85.390625 108.953125 86.640625 103.644531 87.6875 C 97.601562 88.878906 91.527344 89.867188 85.394531 90.519531 C 79.800781 91.113281 74.1875 91.46875 68.558594 91.601562 C 62.160156 91.75 55.800781 91.605469 49.496094 90.410156 C 46.667969 89.875 44.015625 88.878906 41.628906 87.25 C 41.289062 87.011719 41.015625 86.679688 40.714844 86.398438 C 41.265625 85.644531 42.03125 85.144531 41.882812 84.066406 C 41.695312 83.695312 41.453125 83.238281 41.195312 82.726562 C 40.535156 82.683594 39.871094 82.640625 39.492188 82.613281 C 37.480469 83.03125 37.949219 84.851562 37.105469 85.761719 C 37.375 86.796875 37.734375 87.722656 38.652344 88.222656 C 39.699219 88.796875 40.773438 89.347656 41.890625 89.78125 C 44.765625 90.910156 47.777344 91.550781 50.824219 91.9375 C 57.394531 92.769531 64 92.921875 70.613281 92.714844 C 75.796875 92.554688 80.964844 92.179688 86.109375 91.566406 C 90.0625 91.089844 94.007812 90.566406 97.929688 89.902344 C 102.144531 89.179688 106.335938 88.328125 110.511719 87.425781 C 115.867188 86.261719 121.160156 84.847656 126.382812 83.195312 C 129.417969 82.238281 132.40625 81.136719 135.410156 80.0625 C 134.84375 81.691406 134.28125 83.328125 133.738281 84.964844 C 133.148438 86.734375 132.601562 88.515625 132.011719 90.28125 C 131.851562 90.761719 131.609375 91.207031 131.40625 91.65625 C 131.09375 91.851562 130.820312 92.066406 130.519531 92.207031 C 126.308594 94.152344 122.273438 96.421875 118.277344 98.765625 C 114.234375 101.140625 110.367188 103.792969 106.648438 106.648438 C 102.207031 110.058594 98.019531 113.761719 94.101562 117.761719 C 90.625 121.316406 87.417969 125.113281 84.6875 129.289062 C 83.421875 131.226562 82.214844 133.199219 81.253906 135.3125 C 80.460938 137.066406 79.730469 138.832031 79.585938 140.78125 C 79.394531 143.332031 80.480469 145.253906 83.585938 145.570312 C 85.03125 145.710938 86.425781 145.472656 87.761719 145.082031 C 91.296875 144.050781 94.605469 142.464844 97.746094 140.546875 C 100.152344 139.078125 102.4375 137.429688 104.667969 135.695312 C 107.210938 133.710938 109.539062 131.503906 111.800781 129.226562 C 113.597656 127.421875 115.277344 125.519531 116.804688 123.484375 C 117.992188 121.902344 119.253906 120.375 120.328125 118.726562 C 122.019531 116.132812 123.675781 113.507812 125.183594 110.800781 C 126.632812 108.195312 127.90625 105.492188 129.203125 102.796875 C 129.613281 101.945312 130.207031 101.160156 130.285156 100.160156 C 130.300781 100.007812 130.460938 99.871094 130.542969 99.726562 C 130.753906 99.335938 130.980469 98.945312 131.164062 98.539062 C 132.082031 96.480469 132.984375 94.417969 133.921875 92.285156 C 135.335938 91.46875 136.949219 90.945312 138.523438 90.335938 C 140.09375 89.722656 141.671875 89.125 143.28125 88.609375 C 144.945312 88.070312 146.636719 87.628906 148.324219 87.167969 C 149.929688 86.726562 151.597656 86.539062 153.15625 86.046875 C 153.21875 85.570312 152.996094 85.378906 152.703125 85.347656 Z M 129.3125 97.367188 C 128.8125 98.625 128.238281 99.851562 127.714844 101.101562 C 126.261719 104.605469 124.507812 107.949219 122.808594 111.332031 C 121.773438 113.390625 120.484375 115.300781 119.273438 117.261719 C 117.195312 120.640625 114.71875 123.703125 112.113281 126.691406 C 109.394531 129.808594 106.34375 132.550781 103.113281 135.117188 C 100.765625 136.984375 98.261719 138.621094 95.664062 140.097656 C 92.921875 141.65625 90.066406 143.007812 86.984375 143.785156 C 86.0625 144.015625 85.101562 144.15625 84.152344 144.230469 C 83.222656 144.300781 82.375 143.960938 81.621094 143.398438 C 80.65625 142.296875 80.707031 140.980469 81.039062 139.710938 C 81.402344 138.355469 81.832031 136.988281 82.457031 135.742188 C 83.519531 133.625 84.632812 131.519531 85.957031 129.558594 C 87.597656 127.132812 89.359375 124.777344 91.316406 122.578125 C 94.175781 119.375 97.195312 116.347656 100.378906 113.476562 C 102.726562 111.355469 105.183594 109.363281 107.675781 107.429688 C 109.726562 105.84375 111.890625 104.410156 114.039062 102.953125 C 118.011719 100.265625 122.191406 97.910156 126.4375 95.675781 C 127.683594 95.019531 128.980469 94.476562 130.628906 93.707031 C 130.105469 95.171875 129.742188 96.285156 129.308594 97.367188 Z M 129.3125 97.367188 " fill-opacity="1" fill-rule="nonzero"/></g><g clip-path="url(#77cf999822)"><path fill="#ffffff" d="M 139.542969 71.863281 C 139.894531 71.6875 140.238281 71.523438 140.570312 71.359375 C 140.742188 70.6875 140.800781 70.105469 140.292969 69.597656 C 139.902344 69.203125 139.460938 69.070312 138.851562 69.359375 C 138.675781 69.601562 138.457031 69.90625 138.28125 70.152344 C 138.355469 70.980469 138.648438 71.527344 139.542969 71.863281 Z M 139.542969 71.863281 " fill-opacity="1" fill-rule="nonzero"/></g><g fill="#ffffff" fill-opacity="1"><g transform="translate(10.200831, 190.530688)"><g><path d="M 6.4375 -16.96875 C 6.394531 -16.90625 6.359375 -16.691406 6.328125 -16.328125 C 6.296875 -15.972656 6.273438 -15.460938 6.265625 -14.796875 C 6.253906 -14.128906 6.25 -13.285156 6.25 -12.265625 L 6.28125 -0.5 C 6.28125 0.976562 6.070312 2.234375 5.65625 3.265625 C 5.25 4.296875 4.664062 5.082031 3.90625 5.625 C 3.144531 6.164062 2.234375 6.4375 1.171875 6.4375 C 0.203125 6.4375 -0.640625 6.210938 -1.359375 5.765625 C -2.078125 5.328125 -2.4375 4.800781 -2.4375 4.1875 C -2.4375 3.820312 -2.328125 3.535156 -2.109375 3.328125 C -1.890625 3.117188 -1.585938 3.015625 -1.203125 3.015625 C -0.929688 3.015625 -0.65625 3.082031 -0.375 3.21875 C -0.101562 3.351562 0.164062 3.5625 0.4375 3.84375 L 2.09375 5.484375 L 0.984375 5.109375 C 1.597656 5.210938 2.085938 5.132812 2.453125 4.875 C 2.828125 4.625 3.101562 4.164062 3.28125 3.5 C 3.457031 2.832031 3.546875 1.953125 3.546875 0.859375 L 3.546875 -12.265625 C 3.546875 -13.203125 3.539062 -13.988281 3.53125 -14.625 C 3.519531 -15.269531 3.507812 -15.796875 3.5 -16.203125 C 3.488281 -16.609375 3.460938 -16.863281 3.421875 -16.96875 L 1.265625 -17.40625 L 1.328125 -18.609375 L 8.3125 -18.609375 L 8.375 -17.40625 Z M 6.4375 -16.96875 "/></g></g></g><g fill="#ffffff" fill-opacity="1"><g transform="translate(29.774203, 190.530688)"><g><path d="M 1.453125 -18.609375 L 8.1875 -18.609375 L 8.28125 -17.40625 L 6.3125 -16.9375 C 6.3125 -16.851562 6.300781 -16.660156 6.28125 -16.359375 C 6.257812 -16.066406 6.242188 -15.601562 6.234375 -14.96875 C 6.222656 -14.332031 6.21875 -13.429688 6.21875 -12.265625 L 6.21875 -7.390625 C 6.238281 -6.054688 6.453125 -4.984375 6.859375 -4.171875 C 7.273438 -3.359375 7.851562 -2.757812 8.59375 -2.375 C 9.332031 -2 10.175781 -1.8125 11.125 -1.8125 C 12.0625 -1.8125 12.867188 -2 13.546875 -2.375 C 14.234375 -2.757812 14.769531 -3.378906 15.15625 -4.234375 C 15.539062 -5.085938 15.734375 -6.210938 15.734375 -7.609375 L 15.734375 -11.703125 C 15.734375 -12.648438 15.71875 -13.488281 15.6875 -14.21875 C 15.664062 -14.945312 15.644531 -15.546875 15.625 -16.015625 C 15.601562 -16.492188 15.570312 -16.800781 15.53125 -16.9375 L 13.3125 -17.40625 L 13.40625 -18.609375 L 19.5625 -18.609375 L 19.65625 -17.40625 L 17.71875 -16.9375 C 17.71875 -16.875 17.707031 -16.675781 17.6875 -16.34375 C 17.664062 -16.019531 17.648438 -15.488281 17.640625 -14.75 C 17.628906 -14.007812 17.625 -12.992188 17.625 -11.703125 L 17.625 -7.453125 C 17.625 -5.671875 17.328125 -4.207031 16.734375 -3.0625 C 16.148438 -1.925781 15.335938 -1.082031 14.296875 -0.53125 C 13.265625 0.0078125 12.101562 0.28125 10.8125 0.28125 C 8.507812 0.28125 6.707031 -0.347656 5.40625 -1.609375 C 4.101562 -2.878906 3.453125 -4.675781 3.453125 -7 L 3.453125 -12.265625 C 3.453125 -13.429688 3.441406 -14.335938 3.421875 -14.984375 C 3.398438 -15.628906 3.382812 -16.097656 3.375 -16.390625 C 3.363281 -16.691406 3.347656 -16.875 3.328125 -16.9375 L 1.390625 -17.40625 Z M 1.453125 -18.609375 "/></g></g></g><g fill="#ffffff" fill-opacity="1"><g transform="translate(60.573071, 190.530688)"><g><path d="M 14.8125 0.15625 C 14.507812 0.113281 14.171875 0.0820312 13.796875 0.0625 C 13.429688 0.0390625 13.066406 0.0234375 12.703125 0.015625 C 12.347656 0.00390625 12.023438 0 11.734375 0 L 1.578125 0 L 1.515625 -1.203125 L 3.453125 -1.65625 C 3.472656 -1.757812 3.492188 -1.992188 3.515625 -2.359375 C 3.535156 -2.734375 3.550781 -3.257812 3.5625 -3.9375 C 3.570312 -4.613281 3.578125 -5.40625 3.578125 -6.3125 L 3.578125 -12.265625 C 3.578125 -13.222656 3.578125 -14.023438 3.578125 -14.671875 C 3.578125 -15.328125 3.566406 -15.847656 3.546875 -16.234375 C 3.523438 -16.617188 3.492188 -16.851562 3.453125 -16.9375 L 1.515625 -17.40625 L 1.578125 -18.609375 L 9.03125 -18.609375 L 9.125 -17.34375 L 6.5 -16.9375 C 6.457031 -16.875 6.425781 -16.664062 6.40625 -16.3125 C 6.382812 -15.96875 6.363281 -15.460938 6.34375 -14.796875 C 6.320312 -14.128906 6.3125 -13.285156 6.3125 -12.265625 L 6.3125 -6.3125 C 6.3125 -5.207031 6.320312 -4.25 6.34375 -3.4375 C 6.363281 -2.625 6.382812 -2.101562 6.40625 -1.875 C 6.695312 -1.832031 6.992188 -1.804688 7.296875 -1.796875 C 7.609375 -1.785156 7.976562 -1.78125 8.40625 -1.78125 L 10.78125 -1.78125 C 11.269531 -1.78125 11.679688 -1.789062 12.015625 -1.8125 C 12.359375 -1.832031 12.695312 -1.863281 13.03125 -1.90625 L 14.6875 -5.015625 L 16.109375 -4.6875 Z M 14.8125 0.15625 "/></g></g></g><g fill="#ffffff" fill-opacity="1"><g transform="translate(86.520246, 190.530688)"><g><path d="M 1.546875 0 L 1.484375 -1.203125 L 3.421875 -1.65625 C 3.460938 -1.757812 3.488281 -2 3.5 -2.375 C 3.507812 -2.757812 3.519531 -3.28125 3.53125 -3.9375 C 3.539062 -4.59375 3.546875 -5.382812 3.546875 -6.3125 L 3.546875 -12.265625 C 3.546875 -13.222656 3.539062 -14.035156 3.53125 -14.703125 C 3.519531 -15.367188 3.507812 -15.894531 3.5 -16.28125 C 3.488281 -16.675781 3.460938 -16.90625 3.421875 -16.96875 L 1.484375 -17.40625 L 1.546875 -18.609375 L 8.3125 -18.609375 L 8.375 -17.40625 L 6.4375 -16.96875 C 6.394531 -16.90625 6.359375 -16.695312 6.328125 -16.34375 C 6.296875 -16 6.273438 -15.5 6.265625 -14.84375 C 6.253906 -14.1875 6.25 -13.328125 6.25 -12.265625 L 6.25 -6.3125 C 6.25 -5.289062 6.253906 -4.453125 6.265625 -3.796875 C 6.273438 -3.148438 6.296875 -2.648438 6.328125 -2.296875 C 6.359375 -1.953125 6.394531 -1.738281 6.4375 -1.65625 L 8.375 -1.203125 L 8.3125 0 Z M 1.546875 0 "/></g></g></g><g fill="#ffffff" fill-opacity="1"><g transform="translate(106.093614, 190.530688)"><g><path d="M 11.0625 0.28125 C 9.226562 0.28125 7.597656 -0.117188 6.171875 -0.921875 C 4.742188 -1.722656 3.625 -2.84375 2.8125 -4.28125 C 2.007812 -5.71875 1.609375 -7.367188 1.609375 -9.234375 C 1.609375 -11.085938 2.015625 -12.742188 2.828125 -14.203125 C 3.648438 -15.660156 4.785156 -16.804688 6.234375 -17.640625 C 7.679688 -18.472656 9.3125 -18.890625 11.125 -18.890625 C 12.90625 -18.890625 14.46875 -18.488281 15.8125 -17.6875 C 17.164062 -16.882812 18.226562 -15.773438 19 -14.359375 C 19.78125 -12.941406 20.171875 -11.304688 20.171875 -9.453125 C 20.171875 -8.035156 19.925781 -6.734375 19.4375 -5.546875 C 18.945312 -4.359375 18.28125 -3.328125 17.4375 -2.453125 C 16.59375 -1.578125 15.625 -0.898438 14.53125 -0.421875 C 13.445312 0.046875 12.289062 0.28125 11.0625 0.28125 Z M 11.34375 -1.421875 C 12.507812 -1.421875 13.507812 -1.71875 14.34375 -2.3125 C 15.175781 -2.90625 15.820312 -3.742188 16.28125 -4.828125 C 16.738281 -5.921875 16.96875 -7.207031 16.96875 -8.6875 C 16.96875 -10.394531 16.703125 -11.894531 16.171875 -13.1875 C 15.640625 -14.476562 14.914062 -15.488281 14 -16.21875 C 13.082031 -16.945312 12 -17.3125 10.75 -17.3125 C 8.945312 -17.3125 7.523438 -16.640625 6.484375 -15.296875 C 5.441406 -13.953125 4.921875 -12.128906 4.921875 -9.828125 C 4.921875 -8.179688 5.191406 -6.726562 5.734375 -5.46875 C 6.285156 -4.207031 7.046875 -3.21875 8.015625 -2.5 C 8.992188 -1.78125 10.101562 -1.421875 11.34375 -1.421875 Z M 11.34375 -1.421875 "/></g></g></g><g fill="#ffffff" fill-opacity="1"><g transform="translate(137.590108, 190.530688)"><g/></g></g><g fill="#ffffff" fill-opacity="1"><g transform="translate(153.421643, 190.530688)"><g><path d="M 11.671875 0.28125 C 9.828125 0.28125 8.148438 -0.0703125 6.640625 -0.78125 C 5.128906 -1.488281 3.921875 -2.546875 3.015625 -3.953125 C 2.109375 -5.359375 1.65625 -7.09375 1.65625 -9.15625 C 1.65625 -10.488281 1.882812 -11.742188 2.34375 -12.921875 C 2.8125 -14.097656 3.492188 -15.132812 4.390625 -16.03125 C 5.285156 -16.925781 6.378906 -17.625 7.671875 -18.125 C 8.960938 -18.632812 10.429688 -18.890625 12.078125 -18.890625 C 12.941406 -18.890625 13.859375 -18.804688 14.828125 -18.640625 C 15.804688 -18.472656 16.675781 -18.234375 17.4375 -17.921875 L 17.65625 -13.578125 L 16.234375 -13.4375 L 15.28125 -16.453125 C 14.882812 -16.734375 14.359375 -16.941406 13.703125 -17.078125 C 13.046875 -17.210938 12.410156 -17.28125 11.796875 -17.28125 C 10.210938 -17.28125 8.914062 -16.9375 7.90625 -16.25 C 6.90625 -15.5625 6.164062 -14.644531 5.6875 -13.5 C 5.21875 -12.363281 4.984375 -11.109375 4.984375 -9.734375 C 4.984375 -7.941406 5.289062 -6.421875 5.90625 -5.171875 C 6.53125 -3.921875 7.375 -2.976562 8.4375 -2.34375 C 9.507812 -1.707031 10.691406 -1.390625 11.984375 -1.390625 C 12.640625 -1.390625 13.25 -1.460938 13.8125 -1.609375 C 14.375 -1.765625 14.90625 -1.988281 15.40625 -2.28125 L 16.8125 -5.265625 L 18.265625 -5.109375 L 17.375 -1.109375 C 16.632812 -0.753906 15.769531 -0.429688 14.78125 -0.140625 C 13.800781 0.140625 12.765625 0.28125 11.671875 0.28125 Z M 11.671875 0.28125 "/></g></g></g><g fill="#ffffff" fill-opacity="1"><g transform="translate(182.317881, 190.530688)"><g><path d="M 15.40625 0.15625 C 14.789062 0.09375 14.242188 0.0507812 13.765625 0.03125 C 13.296875 0.0078125 12.847656 0 12.421875 0 L 1.546875 0 L 1.453125 -1.203125 L 3.421875 -1.65625 C 3.441406 -1.757812 3.460938 -2 3.484375 -2.375 C 3.503906 -2.757812 3.519531 -3.28125 3.53125 -3.9375 C 3.539062 -4.59375 3.546875 -5.382812 3.546875 -6.3125 L 3.546875 -12.265625 C 3.546875 -13.222656 3.539062 -14.035156 3.53125 -14.703125 C 3.519531 -15.367188 3.503906 -15.890625 3.484375 -16.265625 C 3.460938 -16.648438 3.441406 -16.882812 3.421875 -16.96875 L 1.453125 -17.40625 L 1.546875 -18.609375 L 11.734375 -18.609375 C 12.023438 -18.609375 12.335938 -18.609375 12.671875 -18.609375 C 13.015625 -18.609375 13.367188 -18.625 13.734375 -18.65625 C 14.109375 -18.6875 14.5 -18.710938 14.90625 -18.734375 L 15.53125 -14.546875 L 14.109375 -14.328125 L 13.0625 -17 C 12.894531 -17.039062 12.703125 -17.066406 12.484375 -17.078125 C 12.273438 -17.085938 12.054688 -17.09375 11.828125 -17.09375 L 8.25 -17.09375 C 7.84375 -17.09375 7.484375 -17.085938 7.171875 -17.078125 C 6.867188 -17.066406 6.570312 -17.039062 6.28125 -17 C 6.28125 -16.914062 6.273438 -16.675781 6.265625 -16.28125 C 6.253906 -15.894531 6.242188 -15.445312 6.234375 -14.9375 C 6.222656 -14.425781 6.21875 -13.914062 6.21875 -13.40625 L 6.21875 -4.84375 C 6.21875 -4.425781 6.222656 -4 6.234375 -3.5625 C 6.242188 -3.132812 6.253906 -2.753906 6.265625 -2.421875 C 6.273438 -2.097656 6.28125 -1.863281 6.28125 -1.71875 C 6.59375 -1.695312 6.90625 -1.671875 7.21875 -1.640625 C 7.539062 -1.617188 7.90625 -1.609375 8.3125 -1.609375 L 11.390625 -1.609375 C 11.847656 -1.609375 12.222656 -1.613281 12.515625 -1.625 C 12.816406 -1.644531 13.050781 -1.664062 13.21875 -1.6875 C 13.382812 -1.707031 13.523438 -1.726562 13.640625 -1.75 L 15.28125 -4.75 L 16.703125 -4.46875 Z M 11.890625 -6.5 L 11.515625 -8.65625 C 11.398438 -8.695312 11.21875 -8.726562 10.96875 -8.75 C 10.71875 -8.769531 10.410156 -8.78125 10.046875 -8.78125 L 7.640625 -8.78125 C 7.367188 -8.78125 7.066406 -8.769531 6.734375 -8.75 C 6.410156 -8.726562 6.078125 -8.707031 5.734375 -8.6875 L 5.734375 -10.4375 C 6.078125 -10.414062 6.410156 -10.398438 6.734375 -10.390625 C 7.066406 -10.378906 7.367188 -10.375 7.640625 -10.375 L 10.046875 -10.375 C 10.410156 -10.375 10.71875 -10.378906 10.96875 -10.390625 C 11.21875 -10.398438 11.398438 -10.425781 11.515625 -10.46875 L 11.890625 -12.65625 L 13.25 -12.65625 L 13.25 -6.5 Z M 11.890625 -6.5 "/></g></g></g><g fill="#ffffff" fill-opacity="1"><g transform="translate(209.692018, 190.530688)"><g><path d="M 7.140625 0.28125 C 6.203125 0.28125 5.25 0.164062 4.28125 -0.0625 C 3.3125 -0.289062 2.507812 -0.585938 1.875 -0.953125 L 1.71875 -5.046875 L 3.078125 -5.171875 L 3.96875 -2.34375 C 4.46875 -2.007812 5.03125 -1.75 5.65625 -1.5625 C 6.28125 -1.382812 6.929688 -1.296875 7.609375 -1.296875 C 8.640625 -1.296875 9.472656 -1.550781 10.109375 -2.0625 C 10.742188 -2.570312 11.0625 -3.257812 11.0625 -4.125 C 11.0625 -4.863281 10.835938 -5.476562 10.390625 -5.96875 C 9.953125 -6.46875 9.378906 -6.898438 8.671875 -7.265625 C 7.960938 -7.640625 7.210938 -8 6.421875 -8.34375 C 5.628906 -8.695312 4.882812 -9.097656 4.1875 -9.546875 C 3.488281 -10.003906 2.910156 -10.566406 2.453125 -11.234375 C 2.003906 -11.898438 1.78125 -12.734375 1.78125 -13.734375 C 1.78125 -14.742188 2.066406 -15.644531 2.640625 -16.4375 C 3.222656 -17.226562 4.019531 -17.835938 5.03125 -18.265625 C 6.050781 -18.703125 7.21875 -18.921875 8.53125 -18.921875 C 9.082031 -18.921875 9.613281 -18.894531 10.125 -18.84375 C 10.644531 -18.789062 11.125 -18.707031 11.5625 -18.59375 C 12.007812 -18.476562 12.414062 -18.347656 12.78125 -18.203125 L 13.03125 -14.234375 L 11.671875 -14.109375 L 10.78125 -16.765625 C 10.101562 -17.191406 9.238281 -17.40625 8.1875 -17.40625 C 7.101562 -17.40625 6.238281 -17.140625 5.59375 -16.609375 C 4.945312 -16.085938 4.625 -15.398438 4.625 -14.546875 C 4.625 -13.785156 4.851562 -13.144531 5.3125 -12.625 C 5.769531 -12.113281 6.351562 -11.664062 7.0625 -11.28125 C 7.769531 -10.90625 8.519531 -10.539062 9.3125 -10.1875 C 10.101562 -9.84375 10.851562 -9.445312 11.5625 -9 C 12.269531 -8.5625 12.847656 -8.019531 13.296875 -7.375 C 13.753906 -6.726562 13.984375 -5.929688 13.984375 -4.984375 C 13.984375 -3.960938 13.6875 -3.054688 13.09375 -2.265625 C 12.5 -1.472656 11.6875 -0.847656 10.65625 -0.390625 C 9.632812 0.0546875 8.460938 0.28125 7.140625 0.28125 Z M 7.140625 0.28125 "/></g></g></g><g fill="#ffffff" fill-opacity="1"><g transform="translate(234.62445, 190.530688)"><g><path d="M 0.09375 0 L 0.03125 -1.203125 L 1.578125 -1.65625 L 8.125 -18.078125 L 9.953125 -19.1875 L 16.875 -1.65625 L 18.453125 -1.203125 L 18.359375 0 L 11.953125 0 L 11.890625 -1.203125 L 13.828125 -1.65625 L 11.953125 -6.34375 L 11.609375 -7.328125 L 8.15625 -15.953125 L 8.875 -16.359375 L 5.578125 -7.328125 L 5.234375 -6.375 L 3.546875 -1.65625 L 5.484375 -1.203125 L 5.421875 0 Z M 4.53125 -5.859375 L 4.53125 -7.546875 C 4.9375 -7.523438 5.488281 -7.503906 6.1875 -7.484375 C 6.882812 -7.460938 7.738281 -7.453125 8.75 -7.453125 C 9.738281 -7.453125 10.585938 -7.460938 11.296875 -7.484375 C 12.003906 -7.503906 12.550781 -7.523438 12.9375 -7.546875 L 12.9375 -5.859375 C 12.21875 -5.878906 11.503906 -5.894531 10.796875 -5.90625 C 10.085938 -5.914062 9.40625 -5.921875 8.75 -5.921875 C 8.113281 -5.921875 7.453125 -5.914062 6.765625 -5.90625 C 6.078125 -5.894531 5.332031 -5.878906 4.53125 -5.859375 Z M 4.53125 -5.859375 "/></g></g></g><g fill="#ffffff" fill-opacity="1"><g transform="translate(262.823057, 190.530688)"><g><path d="M 1.65625 0 L 1.578125 -1.203125 L 3.515625 -1.6875 C 3.515625 -1.832031 3.519531 -2.054688 3.53125 -2.359375 C 3.539062 -2.671875 3.546875 -3.035156 3.546875 -3.453125 C 3.546875 -3.878906 3.550781 -4.335938 3.5625 -4.828125 C 3.570312 -5.328125 3.578125 -5.820312 3.578125 -6.3125 L 3.578125 -12.265625 C 3.578125 -13.242188 3.570312 -14.066406 3.5625 -14.734375 C 3.550781 -15.398438 3.535156 -15.914062 3.515625 -16.28125 C 3.492188 -16.65625 3.472656 -16.882812 3.453125 -16.96875 L 1.484375 -17.40625 L 1.578125 -18.609375 L 8.53125 -18.609375 C 10.519531 -18.609375 12.035156 -18.222656 13.078125 -17.453125 C 14.128906 -16.679688 14.65625 -15.546875 14.65625 -14.046875 C 14.65625 -13.015625 14.367188 -12.085938 13.796875 -11.265625 C 13.222656 -10.453125 12.421875 -9.8125 11.390625 -9.34375 C 10.367188 -8.882812 9.203125 -8.65625 7.890625 -8.65625 L 5.859375 -8.65625 L 5.859375 -10.078125 L 7.671875 -10.078125 C 8.984375 -10.078125 10.003906 -10.40625 10.734375 -11.0625 C 11.460938 -11.71875 11.828125 -12.628906 11.828125 -13.796875 C 11.828125 -14.910156 11.507812 -15.757812 10.875 -16.34375 C 10.238281 -16.925781 9.332031 -17.21875 8.15625 -17.21875 L 6.3125 -17.21875 C 6.289062 -17.175781 6.273438 -17.085938 6.265625 -16.953125 C 6.253906 -16.828125 6.25 -16.617188 6.25 -16.328125 C 6.25 -16.035156 6.25 -15.601562 6.25 -15.03125 C 6.25 -14.457031 6.25 -13.695312 6.25 -12.75 L 6.25 -6.3125 C 6.25 -5.40625 6.253906 -4.644531 6.265625 -4.03125 C 6.273438 -3.414062 6.296875 -2.921875 6.328125 -2.546875 C 6.359375 -2.179688 6.382812 -1.894531 6.40625 -1.6875 L 8.28125 -1.203125 L 8.1875 0 Z M 16.671875 0.3125 C 15.742188 0.3125 14.921875 0.140625 14.203125 -0.203125 C 13.484375 -0.554688 12.789062 -1.144531 12.125 -1.96875 C 11.457031 -2.789062 10.722656 -3.890625 9.921875 -5.265625 L 7.765625 -9.1875 L 10.140625 -9.734375 L 13.578125 -4.6875 C 14.160156 -3.820312 14.691406 -3.128906 15.171875 -2.609375 C 15.648438 -2.097656 16.117188 -1.710938 16.578125 -1.453125 C 17.046875 -1.203125 17.554688 -1.023438 18.109375 -0.921875 L 18.078125 0.1875 C 17.859375 0.226562 17.628906 0.257812 17.390625 0.28125 C 17.148438 0.300781 16.910156 0.3125 16.671875 0.3125 Z M 16.671875 0.3125 "/></g></g></g><g clip-path="url(#d51a49361a)"><path fill="#ffffff" d="M 295.175781 66.230469 C 294.621094 65.875 293.972656 65.839844 293.3125 65.78125 C 291.457031 65.617188 289.617188 65.878906 287.78125 66.023438 C 283.867188 66.328125 280.003906 67.03125 276.144531 67.738281 C 275.132812 67.925781 274.140625 68.257812 273.125 68.375 C 271.011719 68.617188 268.953125 69.136719 266.871094 69.535156 C 264.308594 70.027344 261.765625 70.628906 259.21875 71.207031 C 257.519531 71.59375 255.820312 71.988281 254.136719 72.445312 C 251.40625 73.191406 248.679688 73.964844 245.964844 74.773438 C 242.214844 75.890625 238.464844 77.035156 234.726562 78.214844 C 230.628906 79.511719 226.554688 80.859375 222.464844 82.175781 C 218.839844 83.34375 215.207031 84.503906 211.582031 85.664062 C 206.445312 87.304688 201.308594 88.949219 196.167969 90.578125 C 193.523438 91.417969 190.882812 92.269531 188.210938 93.023438 C 185.691406 93.726562 183.144531 94.289062 180.621094 94.941406 C 178.195312 95.566406 175.734375 96.011719 173.269531 96.410156 C 169.613281 97.011719 165.929688 97.410156 162.226562 97.550781 C 160.316406 97.625 158.410156 97.578125 156.515625 97.375 C 155.164062 97.234375 153.816406 96.984375 152.554688 96.441406 C 151.320312 95.90625 150.257812 95.191406 149.855469 93.796875 C 149.597656 92.871094 149.640625 91.972656 149.941406 91.066406 C 150.613281 89.074219 151.765625 87.367188 153.113281 85.789062 C 154.066406 84.667969 155.074219 83.59375 156.054688 82.5 C 156.3125 82.21875 156.519531 81.886719 156.800781 81.640625 C 157.613281 80.933594 158.433594 80.21875 159.292969 79.566406 C 160.375 78.742188 161.457031 77.90625 162.605469 77.195312 C 163.816406 76.453125 165.164062 75.980469 166.53125 75.589844 C 166.90625 75.480469 167.277344 75.429688 167.695312 75.777344 C 167.664062 75.976562 167.695312 76.261719 167.582031 76.472656 C 166.933594 77.65625 166.253906 78.820312 165.605469 79.945312 C 165.683594 80.671875 166.023438 81.339844 166.628906 81.941406 C 166.875 81.960938 167.144531 81.988281 167.421875 82 C 167.6875 82.007812 167.953125 82 168.136719 82 C 169.101562 81.332031 169.910156 80.648438 170.488281 79.695312 C 171.324219 78.324219 171.617188 76.878906 171.320312 75.316406 C 171.136719 74.351562 170.625 73.671875 169.734375 73.171875 C 168.761719 72.625 167.773438 72.464844 166.75 72.761719 C 165.503906 73.117188 164.21875 73.375 163.074219 74.039062 C 162.140625 74.582031 161.1875 75.101562 160.25 75.644531 C 159.972656 75.808594 159.707031 76.007812 159.449219 76.207031 C 158.324219 77.0625 157.078125 77.769531 156.21875 78.9375 C 154.464844 80.328125 152.917969 81.925781 151.535156 83.679688 C 151.132812 84.191406 150.769531 84.734375 150.367188 85.242188 C 148.941406 87.015625 147.933594 88.984375 147.511719 91.21875 C 147.0625 93.597656 147.703125 95.640625 149.621094 97.210938 C 150.789062 98.175781 152.175781 98.652344 153.613281 98.988281 C 154.996094 99.3125 156.40625 99.453125 157.816406 99.542969 C 159.992188 99.675781 162.167969 99.601562 164.34375 99.40625 C 166.835938 99.175781 169.316406 98.878906 171.789062 98.488281 C 175.558594 97.886719 179.261719 97.046875 182.945312 96.082031 C 185.414062 95.429688 187.890625 94.792969 190.332031 94.042969 C 194.59375 92.734375 198.832031 91.34375 203.074219 89.976562 C 206.234375 88.960938 209.363281 87.867188 212.53125 86.867188 C 215.335938 85.976562 218.113281 85.003906 220.910156 84.09375 C 223.59375 83.21875 226.292969 82.378906 228.984375 81.523438 C 230.175781 81.144531 231.359375 80.75 232.550781 80.371094 C 235.445312 79.441406 238.347656 78.527344 241.246094 77.609375 C 242.441406 77.234375 243.625 76.835938 244.832031 76.496094 C 248.289062 75.53125 251.75 74.566406 255.222656 73.648438 C 258.378906 72.820312 261.535156 71.953125 264.730469 71.277344 C 268.511719 70.476562 272.324219 69.824219 276.136719 69.167969 C 280.546875 68.414062 284.976562 67.917969 289.453125 67.84375 C 290.402344 67.824219 291.277344 68.023438 292.246094 68.347656 C 291.992188 68.828125 291.769531 69.246094 291.539062 69.691406 C 291.605469 69.988281 291.671875 70.296875 291.738281 70.578125 C 293.160156 71.367188 294.402344 71.246094 295.539062 70.222656 C 295.804688 69.589844 296.054688 68.988281 296.296875 68.417969 C 296.109375 67.699219 295.734375 66.972656 295.167969 66.242188 Z M 295.175781 66.230469 " fill-opacity="1" fill-rule="nonzero"/></g></svg>