<svg xmlns="http://www.w3.org/2000/svg" xmlns:xlink="http://www.w3.org/1999/xlink" width="200" zoomAndPan="magnify" viewBox="0 0 150 60" height="80" preserveAspectRatio="xMidYMid meet" version="1.0"><defs><clipPath id="fa60b21b66"><path d="M 39.070312 0 L 98 0 L 98 59 L 39.070312 59 Z M 39.070312 0 " clip-rule="nonzero"/></clipPath><clipPath id="74c05bfc6f"><path d="M 13.863281 24 L 72.363281 24 L 72.363281 59 L 13.863281 59 Z M 13.863281 24 " clip-rule="nonzero"/></clipPath><clipPath id="026f9e9384"><path d="M 64 20.769531 L 67 20.769531 L 67 23 L 64 23 Z M 64 20.769531 " clip-rule="nonzero"/></clipPath><clipPath id="a44c7741c8"><path d="M 69.070312 19.011719 L 144.070312 19.011719 L 144.070312 36.261719 L 69.070312 36.261719 Z M 69.070312 19.011719 " clip-rule="nonzero"/></clipPath></defs><rect x="-15" width="180" fill="#ffffff" y="-6" height="72" fill-opacity="1"/><rect x="-15" width="180" fill="#ffffff" y="-6" height="72" fill-opacity="1"/><g clip-path="url(#fa60b21b66)"><path fill="#3d3b3a" d="M 90.804688 11.308594 C 87.242188 6.945312 82.503906 4.027344 77.332031 2.550781 C 75.554688 1.859375 73.726562 1.371094 71.839844 1.078125 C 71.832031 1.078125 71.820312 1.074219 71.8125 1.074219 C 60.070312 -0.707031 47.609375 5.664062 42.730469 16.625 C 42.699219 16.695312 42.667969 16.769531 42.636719 16.84375 C 41.058594 20.070312 40.148438 23.476562 39.902344 27.0625 C 39.066406 39.191406 46.710938 50.773438 57.632812 55.773438 C 63.507812 58.464844 70.488281 59.21875 76.699219 57.25 C 83.121094 55.21875 88.15625 50.046875 91.914062 44.632812 C 99.070312 34.320312 98.8125 21.117188 90.804688 11.308594 Z M 50.210938 8.0625 C 57.902344 2.394531 68.210938 0.25 77.34375 2.90625 C 80.382812 4.078125 83.097656 5.777344 85.480469 8 C 94.050781 15.964844 96.898438 28.640625 91.234375 39.089844 C 85.746094 49.214844 73.292969 56.417969 61.664062 54.347656 C 54.449219 53.0625 47.671875 47.386719 44.183594 41.085938 C 40.871094 35.101562 39.941406 27.847656 41.546875 21.214844 C 41.871094 19.878906 42.304688 18.578125 42.847656 17.3125 C 44.019531 14.800781 45.527344 12.515625 47.378906 10.457031 C 49.230469 8.398438 51.34375 6.652344 53.71875 5.226562 C 59.597656 1.695312 66.398438 0.449219 72.78125 1.621094 C 70.21875 1.308594 67.65625 1.316406 65.089844 1.644531 C 62.527344 1.976562 60.046875 2.613281 57.644531 3.566406 C 54.921875 4.65625 52.417969 6.117188 50.128906 7.949219 C 50.058594 8 50.144531 8.109375 50.210938 8.0625 Z M 85.835938 51.101562 C 80.660156 56.074219 74.144531 58.464844 66.96875 57.84375 C 55.292969 56.820312 44.996094 48.191406 41.464844 37.085938 C 40.164062 32.976562 39.867188 28.796875 40.585938 24.546875 C 39.519531 34.09375 43.574219 43.871094 51.425781 49.859375 C 57.011719 54.117188 63.203125 55.828125 70.171875 54.613281 C 75.957031 53.605469 81.40625 50.796875 85.703125 46.804688 C 94.566406 38.589844 97.292969 25.929688 91.488281 15.140625 C 90.242188 12.820312 88.699219 10.722656 86.855469 8.847656 C 85.011719 6.96875 82.941406 5.386719 80.644531 4.105469 C 81.78125 4.601562 82.875 5.175781 83.929688 5.828125 C 93.453125 11.726562 98.832031 24.03125 96.015625 34.976562 C 94.417969 41.191406 90.40625 46.707031 85.835938 51.101562 Z M 85.835938 51.101562 " fill-opacity="1" fill-rule="nonzero"/></g><g clip-path="url(#74c05bfc6f)"><path fill="#231f20" d="M 72.097656 28.902344 C 71.90625 28.878906 71.699219 28.875 71.507812 28.914062 C 70.332031 29.128906 69.15625 29.34375 67.992188 29.59375 C 67.382812 29.722656 66.777344 29.898438 66.191406 30.101562 C 65.28125 30.421875 64.390625 30.792969 63.488281 31.132812 C 63.394531 31.167969 63.296875 31.277344 63.160156 31.113281 C 63.367188 30.382812 63.660156 29.65625 63.949219 28.929688 C 64.253906 28.171875 64.636719 27.445312 64.953125 26.691406 C 65.136719 26.246094 65.246094 25.773438 65.015625 25.300781 C 64.980469 25.226562 64.921875 25.167969 64.871094 25.097656 C 64.621094 25.050781 64.375 25.007812 64.117188 24.964844 C 63.976562 25.148438 63.847656 25.308594 63.734375 25.476562 C 62.601562 25.910156 61.476562 26.347656 60.3125 26.6875 C 58.648438 27.171875 57.003906 27.734375 55.332031 28.195312 C 52.707031 28.917969 50.0625 29.542969 47.386719 30.0625 C 44.34375 30.65625 41.285156 31.152344 38.195312 31.476562 C 35.378906 31.773438 32.550781 31.949219 29.714844 32.015625 C 26.492188 32.089844 23.289062 32.019531 20.117188 31.421875 C 18.691406 31.15625 17.355469 30.65625 16.152344 29.84375 C 15.980469 29.726562 15.84375 29.558594 15.691406 29.417969 C 15.96875 29.042969 16.355469 28.792969 16.28125 28.257812 C 16.1875 28.070312 16.066406 27.839844 15.9375 27.589844 C 15.601562 27.566406 15.269531 27.542969 15.078125 27.53125 C 14.0625 27.738281 14.300781 28.648438 13.875 29.101562 C 14.011719 29.617188 14.191406 30.082031 14.652344 30.328125 C 15.179688 30.617188 15.722656 30.890625 16.285156 31.105469 C 17.734375 31.671875 19.25 31.988281 20.785156 32.183594 C 24.09375 32.597656 27.421875 32.675781 30.75 32.574219 C 33.359375 32.492188 35.964844 32.304688 38.558594 32 C 40.546875 31.761719 42.535156 31.5 44.511719 31.167969 C 46.632812 30.808594 48.742188 30.382812 50.847656 29.929688 C 53.542969 29.351562 56.210938 28.644531 58.839844 27.820312 C 60.367188 27.34375 61.875 26.792969 63.386719 26.257812 C 63.101562 27.070312 62.816406 27.886719 62.542969 28.703125 C 62.246094 29.585938 61.972656 30.476562 61.675781 31.359375 C 61.59375 31.597656 61.472656 31.820312 61.371094 32.042969 C 61.214844 32.140625 61.078125 32.25 60.921875 32.320312 C 58.804688 33.289062 56.769531 34.421875 54.757812 35.589844 C 52.722656 36.777344 50.773438 38.097656 48.898438 39.523438 C 46.664062 41.226562 44.554688 43.074219 42.582031 45.070312 C 40.832031 46.84375 39.214844 48.742188 37.839844 50.824219 C 37.203125 51.789062 36.59375 52.773438 36.109375 53.832031 C 35.710938 54.707031 35.34375 55.585938 35.269531 56.558594 C 35.171875 57.832031 35.71875 58.792969 37.285156 58.949219 C 38.011719 59.019531 38.714844 58.898438 39.390625 58.703125 C 41.167969 58.191406 42.835938 57.398438 44.417969 56.441406 C 45.628906 55.707031 46.777344 54.886719 47.902344 54.019531 C 49.183594 53.03125 50.355469 51.929688 51.496094 50.792969 C 52.398438 49.890625 53.246094 48.941406 54.015625 47.925781 C 54.613281 47.136719 55.25 46.375 55.789062 45.550781 C 56.644531 44.257812 57.476562 42.949219 58.238281 41.597656 C 58.96875 40.296875 59.609375 38.945312 60.261719 37.601562 C 60.46875 37.179688 60.765625 36.785156 60.804688 36.285156 C 60.8125 36.210938 60.894531 36.144531 60.933594 36.070312 C 61.042969 35.875 61.15625 35.679688 61.25 35.476562 C 61.710938 34.449219 62.164062 33.421875 62.636719 32.355469 C 63.347656 31.949219 64.164062 31.6875 64.953125 31.382812 C 65.746094 31.078125 66.542969 30.78125 67.351562 30.523438 C 68.1875 30.253906 69.042969 30.035156 69.890625 29.804688 C 70.699219 29.582031 71.539062 29.488281 72.324219 29.242188 C 72.355469 29.007812 72.242188 28.910156 72.097656 28.894531 Z M 60.316406 34.894531 C 60.0625 35.519531 59.773438 36.132812 59.511719 36.757812 C 58.777344 38.503906 57.894531 40.175781 57.039062 41.863281 C 56.519531 42.890625 55.867188 43.84375 55.261719 44.824219 C 54.210938 46.507812 52.964844 48.039062 51.652344 49.527344 C 50.285156 51.082031 48.746094 52.449219 47.121094 53.730469 C 45.9375 54.664062 44.675781 55.480469 43.367188 56.21875 C 41.988281 56.996094 40.550781 57.671875 38.996094 58.058594 C 38.53125 58.171875 38.050781 58.242188 37.570312 58.28125 C 37.101562 58.316406 36.675781 58.144531 36.296875 57.863281 C 35.8125 57.316406 35.835938 56.65625 36.003906 56.023438 C 36.1875 55.347656 36.402344 54.667969 36.714844 54.042969 C 37.253906 52.988281 37.8125 51.9375 38.480469 50.957031 C 39.304688 49.746094 40.191406 48.574219 41.179688 47.472656 C 42.617188 45.875 44.140625 44.367188 45.742188 42.933594 C 46.925781 41.875 48.164062 40.878906 49.417969 39.914062 C 50.453125 39.125 51.539062 38.40625 52.621094 37.679688 C 54.625 36.339844 56.730469 35.164062 58.867188 34.050781 C 59.496094 33.722656 60.148438 33.449219 60.980469 33.066406 C 60.714844 33.796875 60.53125 34.351562 60.3125 34.894531 Z M 60.316406 34.894531 " fill-opacity="1" fill-rule="nonzero"/></g><g clip-path="url(#026f9e9384)"><path fill="#231f20" d="M 65.46875 22.164062 C 65.644531 22.078125 65.820312 21.996094 65.984375 21.914062 C 66.074219 21.578125 66.101562 21.289062 65.847656 21.035156 C 65.648438 20.839844 65.425781 20.773438 65.121094 20.917969 C 65.03125 21.039062 64.921875 21.1875 64.832031 21.3125 C 64.871094 21.726562 65.015625 22 65.46875 22.167969 Z M 65.46875 22.164062 " fill-opacity="1" fill-rule="nonzero"/></g><g clip-path="url(#a44c7741c8)"><path fill="#231f20" d="M 143.503906 19.347656 C 143.222656 19.167969 142.898438 19.148438 142.566406 19.121094 C 141.632812 19.039062 140.710938 19.171875 139.785156 19.242188 C 137.820312 19.394531 135.878906 19.753906 133.941406 20.109375 C 133.429688 20.203125 132.933594 20.371094 132.421875 20.433594 C 131.359375 20.554688 130.324219 20.816406 129.28125 21.019531 C 127.992188 21.265625 126.714844 21.570312 125.433594 21.863281 C 124.578125 22.058594 123.726562 22.257812 122.878906 22.488281 C 121.507812 22.867188 120.136719 23.257812 118.773438 23.664062 C 116.886719 24.230469 115.003906 24.808594 113.125 25.40625 C 111.066406 26.0625 109.019531 26.742188 106.964844 27.40625 C 105.140625 27.996094 103.316406 28.585938 101.496094 29.171875 C 98.914062 30 96.332031 30.832031 93.75 31.65625 C 92.421875 32.082031 91.09375 32.511719 89.75 32.890625 C 88.484375 33.246094 87.203125 33.53125 85.9375 33.859375 C 84.71875 34.175781 83.480469 34.402344 82.242188 34.601562 C 80.40625 34.90625 78.554688 35.109375 76.691406 35.179688 C 75.734375 35.214844 74.777344 35.195312 73.824219 35.089844 C 73.144531 35.019531 72.46875 34.894531 71.832031 34.617188 C 71.214844 34.347656 70.675781 33.984375 70.476562 33.28125 C 70.347656 32.816406 70.367188 32.359375 70.519531 31.902344 C 70.855469 30.894531 71.4375 30.03125 72.113281 29.234375 C 72.59375 28.667969 73.097656 28.125 73.589844 27.570312 C 73.71875 27.429688 73.824219 27.261719 73.964844 27.136719 C 74.375 26.777344 74.789062 26.417969 75.21875 26.089844 C 75.761719 25.671875 76.308594 25.25 76.882812 24.890625 C 77.492188 24.515625 78.167969 24.277344 78.855469 24.078125 C 79.042969 24.023438 79.230469 23.996094 79.441406 24.171875 C 79.425781 24.273438 79.441406 24.417969 79.382812 24.523438 C 79.058594 25.125 78.714844 25.710938 78.390625 26.28125 C 78.429688 26.648438 78.601562 26.984375 78.90625 27.289062 C 79.027344 27.296875 79.164062 27.3125 79.304688 27.316406 C 79.4375 27.324219 79.570312 27.316406 79.664062 27.316406 C 80.148438 26.980469 80.554688 26.632812 80.84375 26.15625 C 81.265625 25.460938 81.410156 24.730469 81.261719 23.941406 C 81.171875 23.453125 80.914062 23.109375 80.464844 22.855469 C 79.976562 22.582031 79.480469 22.5 78.964844 22.648438 C 78.339844 22.828125 77.695312 22.957031 77.121094 23.296875 C 76.648438 23.570312 76.171875 23.832031 75.699219 24.105469 C 75.558594 24.191406 75.425781 24.289062 75.296875 24.390625 C 74.730469 24.824219 74.105469 25.179688 73.675781 25.769531 C 72.792969 26.472656 72.015625 27.28125 71.320312 28.167969 C 71.117188 28.425781 70.9375 28.703125 70.734375 28.957031 C 70.015625 29.855469 69.511719 30.851562 69.300781 31.980469 C 69.074219 33.183594 69.394531 34.214844 70.359375 35.007812 C 70.945312 35.496094 71.644531 35.734375 72.363281 35.90625 C 73.058594 36.070312 73.769531 36.140625 74.476562 36.1875 C 75.570312 36.253906 76.664062 36.214844 77.757812 36.117188 C 79.011719 36 80.253906 35.851562 81.5 35.652344 C 83.390625 35.351562 85.253906 34.925781 87.105469 34.4375 C 88.347656 34.105469 89.589844 33.785156 90.816406 33.40625 C 92.957031 32.746094 95.085938 32.042969 97.21875 31.351562 C 98.808594 30.839844 100.382812 30.285156 101.972656 29.777344 C 103.382812 29.328125 104.777344 28.835938 106.183594 28.378906 C 107.53125 27.933594 108.886719 27.511719 110.238281 27.078125 C 110.839844 26.886719 111.433594 26.6875 112.03125 26.496094 C 113.488281 26.027344 114.945312 25.5625 116.402344 25.097656 C 117.003906 24.910156 117.597656 24.707031 118.203125 24.535156 C 119.941406 24.046875 121.679688 23.558594 123.425781 23.097656 C 125.011719 22.679688 126.597656 22.238281 128.203125 21.898438 C 130.101562 21.492188 132.019531 21.164062 133.9375 20.832031 C 136.152344 20.453125 138.378906 20.203125 140.628906 20.164062 C 141.105469 20.152344 141.542969 20.253906 142.03125 20.417969 C 141.902344 20.660156 141.792969 20.871094 141.675781 21.097656 C 141.707031 21.246094 141.742188 21.402344 141.777344 21.542969 C 142.492188 21.945312 143.113281 21.882812 143.683594 21.367188 C 143.820312 21.046875 143.945312 20.742188 144.066406 20.453125 C 143.972656 20.089844 143.785156 19.722656 143.5 19.355469 Z M 143.503906 19.347656 " fill-opacity="1" fill-rule="nonzero"/></g></svg>